<svg xmlns="http://www.w3.org/2000/svg" xmlns:xlink="http://www.w3.org/1999/xlink" version="1.1" width="256" height="256" viewBox="0 0 256 256" xml:space="preserve">

<defs>
</defs>
<g style="stroke: none; stroke-width: 0; stroke-dasharray: none; stroke-linecap: butt; stroke-linejoin: miter; stroke-miterlimit: 10; fill: none; fill-rule: nonzero; opacity: 1;" transform="translate(1.4065934065934016 1.4065934065934016) scale(2.81 2.81)" >
	<circle cx="45" cy="45" r="45" style="stroke: none; stroke-width: 1; stroke-dasharray: none; stroke-linecap: butt; stroke-linejoin: miter; stroke-miterlimit: 10; fill: rgb(150,126,118); fill-rule: nonzero; opacity: 1;" transform="  matrix(1 0 0 1 0 0) "/>
	<path d="M 38.959 19.861 l 7.267 14.725 c 0.26 0.527 0.762 0.892 1.344 0.976 l 16.25 2.361 c 1.464 0.213 2.048 2.011 0.989 3.044 L 53.05 52.428 c -0.421 0.41 -0.612 1.001 -0.513 1.579 l 2.776 16.184 c 0.25 1.458 -1.28 2.569 -2.589 1.881 L 38.19 64.432 c -0.52 -0.273 -1.141 -0.273 -1.661 0 l -14.534 7.641 c -1.309 0.688 -2.839 -0.423 -2.589 -1.881 l 2.776 -16.184 c 0.099 -0.579 -0.093 -1.169 -0.513 -1.579 L 9.91 40.967 c -1.059 -1.032 -0.475 -2.831 0.989 -3.044 l 16.25 -2.361 c 0.581 -0.084 1.084 -0.449 1.344 -0.976 l 7.267 -14.725 C 36.414 18.535 38.305 18.535 38.959 19.861 z" style="stroke: none; stroke-width: 1; stroke-dasharray: none; stroke-linecap: butt; stroke-linejoin: miter; stroke-miterlimit: 10; fill: rgb(58,0,30); fill-rule: nonzero; opacity: 1;" transform=" matrix(1 0 0 1 0 0) " stroke-linecap="round" />
	<path d="M 41.985 16.835 l 7.267 14.725 c 0.26 0.527 0.762 0.892 1.344 0.976 l 16.25 2.361 c 1.464 0.213 2.048 2.011 0.989 3.044 L 56.076 49.403 c -0.421 0.41 -0.612 1.001 -0.513 1.579 l 2.776 16.184 c 0.25 1.458 -1.28 2.569 -2.589 1.881 l -14.534 -7.641 c -0.52 -0.273 -1.141 -0.273 -1.661 0 L 25.02 69.047 c -1.309 0.688 -2.839 -0.423 -2.589 -1.881 l 2.776 -16.184 c 0.099 -0.579 -0.093 -1.169 -0.513 -1.579 L 12.935 37.941 c -1.059 -1.032 -0.475 -2.831 0.989 -3.044 l 16.25 -2.361 c 0.581 -0.084 1.084 -0.449 1.344 -0.976 l 7.267 -14.725 C 39.439 15.509 41.33 15.509 41.985 16.835 z" style="stroke: none; stroke-width: 1; stroke-dasharray: none; stroke-linecap: butt; stroke-linejoin: miter; stroke-miterlimit: 10; fill: rgb(255,255,255); fill-rule: nonzero; opacity: 1;" transform=" matrix(1 0 0 1 0 0) " stroke-linecap="round" />
	<circle cx="62.981" cy="61.131" r="16.391" style="stroke: none; stroke-width: 1; stroke-dasharray: none; stroke-linecap: butt; stroke-linejoin: miter; stroke-miterlimit: 10; fill: rgb(150,126,118); fill-rule: nonzero; opacity: 1;" transform="  matrix(1 0 0 1 0 0) "/>
	<path d="M 67.941 66.255 H 51.8 c -1.657 0 -3 -1.343 -3 -3 s 1.343 -3 3 -3 h 16.142 c 1.657 0 3 1.343 3 3 S 69.599 66.255 67.941 66.255 z" style="stroke: none; stroke-width: 1; stroke-dasharray: none; stroke-linecap: butt; stroke-linejoin: miter; stroke-miterlimit: 10; fill: rgb(58,0,30); fill-rule: nonzero; opacity: 1;" transform=" matrix(1 0 0 1 0 0) " stroke-linecap="round" />
	<path d="M 59.87 74.325 c -1.657 0 -3 -1.343 -3 -3 V 55.184 c 0 -1.657 1.343 -3 3 -3 s 3 1.343 3 3 v 16.142 C 62.87 72.982 61.527 74.325 59.87 74.325 z" style="stroke: none; stroke-width: 1; stroke-dasharray: none; stroke-linecap: butt; stroke-linejoin: miter; stroke-miterlimit: 10; fill: rgb(58,0,30); fill-rule: nonzero; opacity: 1;" transform=" matrix(1 0 0 1 0 0) " stroke-linecap="round" />
	<path d="M 70.758 63.444 H 54.616 c -1.657 0 -3 -1.343 -3 -3 s 1.343 -3 3 -3 h 16.142 c 1.657 0 3 1.343 3 3 S 72.415 63.444 70.758 63.444 z" style="stroke: none; stroke-width: 1; stroke-dasharray: none; stroke-linecap: butt; stroke-linejoin: miter; stroke-miterlimit: 10; fill: rgb(255,255,255); fill-rule: nonzero; opacity: 1;" transform=" matrix(1 0 0 1 0 0) " stroke-linecap="round" />
	<path d="M 62.68 71.338 c -1.657 0 -3 -1.343 -3 -3 V 51.469 c 0 -1.657 1.343 -3 3 -3 s 3 1.343 3 3 v 16.869 C 65.68 69.995 64.337 71.338 62.68 71.338 z" style="stroke: none; stroke-width: 1; stroke-dasharray: none; stroke-linecap: butt; stroke-linejoin: miter; stroke-miterlimit: 10; fill: rgb(255,255,255); fill-rule: nonzero; opacity: 1;" transform=" matrix(1 0 0 1 0 0) " stroke-linecap="round" />
</g>
</svg>